<?xml version="1.0" encoding="UTF-8" standalone="no"?>
<svg
   xmlns:dc="http://purl.org/dc/elements/1.1/"
   xmlns:cc="http://creativecommons.org/ns#"
   xmlns:rdf="http://www.w3.org/1999/02/22-rdf-syntax-ns#"
   xmlns:svg="http://www.w3.org/2000/svg"
   xmlns="http://www.w3.org/2000/svg"
   xmlns:sodipodi="http://sodipodi.sourceforge.net/DTD/sodipodi-0.dtd"
   xmlns:inkscape="http://www.inkscape.org/namespaces/inkscape"
   viewBox="0 0 25 25"
   id="svg2"
   version="1.1"
   inkscape:version="0.91 r13725"
   sodipodi:docname="github.svg"
   width="25"
   height="25">
  <metadata
     id="metadata10">
    <rdf:RDF>
      <cc:Work
         rdf:about="">
        <dc:format>image/svg+xml</dc:format>
        <dc:type
           rdf:resource="http://purl.org/dc/dcmitype/StillImage" />
        <dc:title></dc:title>
      </cc:Work>
    </rdf:RDF>
  </metadata>
  <defs
     id="defs8" />
  <sodipodi:namedview
     pagecolor="#ffffff"
     bordercolor="#666666"
     borderopacity="1"
     objecttolerance="10"
     gridtolerance="10"
     guidetolerance="10"
     inkscape:pageopacity="0"
     inkscape:pageshadow="2"
     inkscape:window-width="1914"
     inkscape:window-height="2154"
     id="namedview6"
     showgrid="false"
     fit-margin-top="0"
     fit-margin-left="0"
     fit-margin-right="0"
     fit-margin-bottom="0"
     inkscape:zoom="4.72"
     inkscape:cx="-46.440678"
     inkscape:cy="14.215542"
     inkscape:window-x="2160"
     inkscape:window-y="584"
     inkscape:window-maximized="0"
     inkscape:current-layer="svg2" />
  <path
     d="M 12.541343,0.27319609 C 5.6017997,0.27319609 0,5.8749959 0,12.814535 c 0,5.51819 3.5951849,10.200291 8.6117219,11.87247 0.6688716,0.08361 0.8360895,-0.250826 0.8360895,-0.585262 l 0,-2.173833 C 5.9362355,22.680391 5.1837549,20.255731 5.1837549,20.255731 4.5984923,18.834379 3.7624028,18.416334 3.7624028,18.416334 c -1.1705253,-0.75248 0.083609,-0.75248 0.083609,-0.75248 1.2541343,0.08361 1.9230059,1.254134 1.9230059,1.254134 1.0869163,1.923006 2.9263132,1.337743 3.6787938,1.003307 0.083609,-0.836089 0.4180447,-1.337743 0.8360895,-1.672179 -2.7590954,-0.334436 -5.6854086,-1.421352 -5.6854086,-6.187062 0,-1.337743 0.5016537,-2.508266 1.2541342,-3.3443541 -0.1672179,-0.334436 -0.5852626,-1.58857 0.083609,-3.344358 0,0 1.0869163,-0.334436 3.4279669,1.254134 1.0033075,-0.250826 2.0902235,-0.418044 3.1771405,-0.418044 1.086916,0 2.173832,0.167218 3.17714,0.418044 2.424659,-1.58857 3.427967,-1.254134 3.427967,-1.254134 0.668871,1.755788 0.250826,3.009922 0.08361,3.344358 0.836089,0.8360881 1.254134,2.0066111 1.254134,3.3443541 0,4.849319 -2.926313,5.852626 -5.685409,6.187062 0.418045,0.418045 0.83609,1.170526 0.83609,2.341051 l 0,3.427967 c 0,0.334436 0.250827,0.75248 0.836089,0.585263 C 21.4875,22.931218 24.999076,18.249116 24.999076,12.730926 25.082686,5.8749959 19.480885,0.27319609 12.541343,0.27319609 Z"
     id="github-icon"
     class="icon"
     inkscape:connector-curvature="0"
     style="clip-rule:evenodd;fill-rule:evenodd" />
</svg>
