<?xml version="1.0" encoding="UTF-8" standalone="no"?>
<svg
   xmlns:dc="http://purl.org/dc/elements/1.1/"
   xmlns:cc="http://creativecommons.org/ns#"
   xmlns:rdf="http://www.w3.org/1999/02/22-rdf-syntax-ns#"
   xmlns:svg="http://www.w3.org/2000/svg"
   xmlns="http://www.w3.org/2000/svg"
   xmlns:sodipodi="http://sodipodi.sourceforge.net/DTD/sodipodi-0.dtd"
   xmlns:inkscape="http://www.inkscape.org/namespaces/inkscape"
   width="25"
   height="25"
   viewBox="0 0 25 25"
   id="svg4755"
   version="1.1"
   inkscape:version="0.91 r13725"
   sodipodi:docname="rss.svg">
  <metadata
     id="metadata4763">
    <rdf:RDF>
      <cc:Work
         rdf:about="">
        <dc:format>image/svg+xml</dc:format>
        <dc:type
           rdf:resource="http://purl.org/dc/dcmitype/StillImage" />
        <dc:title></dc:title>
      </cc:Work>
    </rdf:RDF>
  </metadata>
  <defs
     id="defs4761" />
  <sodipodi:namedview
     pagecolor="#ffffff"
     bordercolor="#666666"
     borderopacity="1"
     objecttolerance="10"
     gridtolerance="10"
     guidetolerance="10"
     inkscape:pageopacity="0"
     inkscape:pageshadow="2"
     inkscape:window-width="1914"
     inkscape:window-height="2154"
     id="namedview4759"
     showgrid="false"
     fit-margin-top="0"
     fit-margin-left="0"
     fit-margin-right="0"
     fit-margin-bottom="0"
     inkscape:zoom="143"
     inkscape:cx="4"
     inkscape:cy="4"
     inkscape:window-x="2160"
     inkscape:window-y="584"
     inkscape:window-maximized="0"
     inkscape:current-layer="svg4755" />
  <path
     d="m 3.125,0 0,3.125 c 10.375,0 18.75,8.375 18.75,18.75 l 3.125,0 C 25,9.8125 15.1875,0 3.125,0 Z m 0,6.25 0,3.125 c 6.90625,0 12.5,5.59375 12.5,12.5 l 3.125,0 C 18.75,13.25 11.75,6.25 3.125,6.25 Z m 0,6.25 0,3.125 c 3.46875,0 6.25,2.78125 6.25,6.25 l 3.125,0 C 12.5,16.71875 8.28125,12.5 3.125,12.5 Z m 0,6.25 C 1.40625,18.75 0,20.15625 0,21.875 0,23.59375 1.40625,25 3.125,25 4.84375,25 6.25,23.59375 6.25,21.875 6.25,20.15625 4.84375,18.75 3.125,18.75 Z"
     id="rss-icon"
     class="icon"
     inkscape:connector-curvature="0" />
</svg>
