<?xml version="1.0" encoding="UTF-8" standalone="no"?>
<svg
   xmlns:dc="http://purl.org/dc/elements/1.1/"
   xmlns:cc="http://creativecommons.org/ns#"
   xmlns:rdf="http://www.w3.org/1999/02/22-rdf-syntax-ns#"
   xmlns:svg="http://www.w3.org/2000/svg"
   xmlns="http://www.w3.org/2000/svg"
   xmlns:sodipodi="http://sodipodi.sourceforge.net/DTD/sodipodi-0.dtd"
   xmlns:inkscape="http://www.inkscape.org/namespaces/inkscape"
   viewBox="0 0 0.17327353 0.20050866"
   id="svg2"
   version="1.1"
   inkscape:version="0.91 r13725"
   sodipodi:docname="twitter.svg"
   width="25"
   height="25">
  <metadata
     id="metadata10">
    <rdf:RDF>
      <cc:Work
         rdf:about="">
        <dc:format>image/svg+xml</dc:format>
        <dc:type
           rdf:resource="http://purl.org/dc/dcmitype/StillImage" />
        <dc:title></dc:title>
      </cc:Work>
    </rdf:RDF>
  </metadata>
  <defs
     id="defs8" />
  <sodipodi:namedview
     pagecolor="#ffffff"
     bordercolor="#666666"
     borderopacity="1"
     objecttolerance="10"
     gridtolerance="10"
     guidetolerance="10"
     inkscape:pageopacity="0"
     inkscape:pageshadow="2"
     inkscape:window-width="1914"
     inkscape:window-height="2154"
     id="namedview6"
     showgrid="true"
     fit-margin-top="0"
     fit-margin-left="0"
     fit-margin-right="0"
     fit-margin-bottom="0"
     inkscape:zoom="45.76"
     inkscape:cx="12.500261"
     inkscape:cy="10.231029"
     inkscape:window-x="2160"
     inkscape:window-y="584"
     inkscape:window-maximized="0"
     inkscape:current-layer="svg2"
     units="px">
    <inkscape:grid
       type="xygrid"
       id="grid4697"
       originx="-1.8426413"
       originy="-1.2711584" />
  </sodipodi:namedview>
  <path
     d="m 0.18688504,0.03645885 c -0.00755,0.0034 -0.015107,0.0055 -0.024034,0.0069 0.00824,-0.0055 0.015107,-0.01305 0.01854,-0.02266 -0.00824,0.0048 -0.017167,0.0082 -0.026094,0.0103 -0.007552,-0.0082 -0.0185392,-0.01305 -0.0302126,-0.01305 -0.02266,0 -0.041887,0.01854 -0.041887,0.04189 0,0.0034 6.867e-4,0.0062 0.00137,0.0096 -0.034334,-0.0014 -0.065234,-0.01854 -0.085834,-0.04326 -0.00343,0.0048 -0.00549,0.01167 -0.00549,0.01923 0,0.01442 0.007549999,0.02747 0.01854,0.03433 -0.00687,0 -0.013047,-0.0021 -0.01854,-0.0055 l 0,6.8701e-4 c 0,0.01991 0.01442,0.03708 0.033647,0.04051 -0.00343,6.86e-4 -0.00687,0.0014 -0.010987,0.0014 -0.00275,0 -0.00549,0 -0.00755,-6.87e-4 0.00549,0.01648 0.0206,0.02884 0.03914,0.02884 -0.01442,0.01099 -0.032274,0.01785 -0.051501,0.01785 -0.00343,0 -0.00687,0 -0.00961,-6.87e-4 0.01648,0.01305 0.038454,0.01991 0.061801,0.01991 0.076221,0 0.1181079,-0.06317 0.1181079,-0.11810781 l 0,-0.0055 c 0.00824,-0.0062 0.015107,-0.01304999 0.0206,-0.02196999 z"
     id="twitter-icon"
     class="icon"
     inkscape:connector-curvature="0" />
</svg>
